<?xml version="1.0" encoding="UTF-8"?>
<svg version="1.1" viewBox="0 0 2048 1780" width="1280" height="1280" xmlns="http://www.w3.org/2000/svg">
<path transform="translate(1485,446)" d="m0 0 12 1 14 4h16l16-4 10 1 8 4 6 7 3 9 2 34 4 13 5 8 4 10v14l-5 12-5 6-7 3 2 5 5 11 3 11 1 8v20l-2 26-3 18-7 21-8 16-6 10-10 13 2 9 11 39 9 4 11 6 13 10 8 8 11 15 8 16 7 19 6 20 11 56 4 14h95v3l-14 12-9 10-10 14-9 17-5 16-6 25-5 40 2 11 5 11 4 13 7 27 13 40 5 21 4 23 2 26v19l-2 18-5 16-6 12-9 12-10 10-16 9-7 4v24l6 39 9 49 5 25 3 12 2 2 8-9 5-4 22-8 14-6 7-1-1 17-5 41-5 48-3 9-2 1-8-6-8-9-7-9-3-2v-2l-4-2-2-2 4 27 12 68 11 62 3 17v5l111 1-1-524 1-124-100 1h-56l-2-6v-16h173l1 1v668l15-1h56l7 1v2h-730v-2h30l2-15 9-48 8-48 8-42 11-62 11-60 11-64 5-27 1-10-2 1-9 1h-45l-67-1 5 16 3 13 4 35 1 37-1 35-4 47-5 34-8 46-6 29-2 8-2 5 1 5 5 14 2 9v14l-3 18-3 9h22l15 1-1 2h-736v-2h50v-273l-13 8-10 4-11 2h-19l-16-3-3-1-3 12-7 20-12 36-8 25-1 5h58l1 1v20l-3 2h-3l4 3 1 5-1 6-4 1v2h4v11l-3 19-4 17-8 20-6 11-8 11-7 8-8 7-1 20 32 1v2h-362v-3h160l89 1-1-20-4-5-8-7-11-14-8-15-6-16-5-22-3-19 1-9-1-2v-11l2-4h-3v-21h54l-14-47-9-30-8-26-5-17v-2l-13 3-7 1h-25l-16-4-12-6-11-8-10-10-9-12-9-15-10-24-6-20-7-33-4-29-3-37-1-16v-72l3-54 4-47 7-56 4 2 7 9 12 14 13 15 10 13 12 15 10 13 12 16 12 17 13 18 14 21 6 11 2 1 3-14 6-20 14-41 10-26 12-31 10-22 13-29 14-29 8-16 19-37 9-16 10-19 14-24 5-10h3l7 23 12 38 12 41 10 37 15 65 4 17v4h84l86-1 3-1-8-2-20-1-13-2-8-1v-1l12-1-55 1-1-1-1-35v-330l3-6 5-4h130l8 2 6 5 1 2 2 72v44l-2 65-2 60-2 30-7 6-1 2 12 1 60 2 1 21 6 2 8 6 1 1h167l-1-19-1-56h-187l-11-2-6-4-5-4-4-9-1-17 1-4 6-4 2-5-9-2v-247l2-7 4-5 7-4 192-1 50-1h53l36 1 133 1 5 3 6 7 1 2 1 250-1 2-5 1 1 4 5 3 1 9-2 14-6 11-6 5-7 2-9 1h-185l-1 48-1 25-1 2h164l29-9 19-7 12-4 4-1 2-4 8-12 10-13 21-28 10-14 10-13 16-21 11-14 8-10 6-8h2l2-4 12-14 9-9h2l1-3 8-7 8-8 15-11 14-8 4-2 1-22v-7h-7l-13-4-12-7-6-7-8-15-5-12v2l5 12v9l-6 6h-6l-9-6-5-8-1-6v-22l-2-12-4-10-5-10-1-5v-11l4-12 12-24 7-17 5-18 6-11 7-9 12-7 9-3h3l-8-16-1-4v-9l7-10 10-10 3-10 1-15 4-10 6-7 8-5zm-786 262-82 1-5 3-3 3-1 4v10l2 1 52 1h84v-15l-3-6-7-2zm-35 49v12h-43l2 2h12l1 2 1-1 26-1v25h-27v-16h-1v17h-16v1l15 1 1 27h-11v1h11v26h-17v1l9 1h8v25h-16l3 2 12 1 1 26h-11v1l10 1 1 25h-14l-1 2h15v26h-14v1l13 1 2 4 1-3h25l1 24h-26l-1-17h-1l-1 19 3 1h25v24l-13 1h-13v-15h-1v16h-16v1l17 1h27v27h-20l1 2h22l-1-6v-23h26v28h-19v1h21l-1-29h9l7-1-1-2h-14v-25l10-1v-1l-10-1-1-25 8-1v-1l-7-1-1-25h30v-2l-3-1h-26l-1-24h26l2 2 1-2 3-2h-4v-22l1-4 14-1 1-2h-16v-25l15-1v-2h-15v-25h14v-2h-14v-26h16l1-3h-17l1-24 17-1v-2h-18v-11h-1v11l-27-1h-26l-1-11zm-36 235m278 68-1 4 2 4h7l-5-6-1-2zm-371 31-2 1-2 19 2 26 1 8 2 1 7-6 7-8 8-10 2-3h2l5 67 1 32v57l-1 28-4 39-5 29-5 23-9 27-6 13-6 11v2h2l-1 10v50l2 16h1l2-12 7-11 9-10 11-12 15-16 3-3 3 1 9 30 11 35 8 27 8 26-22-6-39-10-22-8-5-2-1 1v185l475 1 3-1 4-9 5-6 12-6 34-11 2-10 6-5 14-6 17-5 8-9 2-4v-10l-2-12-2-22-10 5-12 8-30 21-16 11-9 5-1-1-1-11 2-9 6-10 13-17 3-5 3-3-4-3v-6l7-14 8-10 7-8 1-6v-10l-8-36-9-41-10-49-10-56-7 6-38 19-19 10-42 21-19 10-76 38-19 10-16 8-27 14h-2v-105l1-104 2-102 1-65 6 2 18 11 19 12 16 10 20 12 44 28 47 29 17 11 20 12 18 11 20 12h2l1-66 3-19 5-15 7-8 11-7 13-8 12-7 28-12 23-7 36-8 22-3 30-2h30l33 2 29 3 41 7 34 7 13 4 4 1 3-9 8-48v-2zm778 279-2 6-9 50-9 49-11 64-7 38-10 56-8 44-9 53-1 8 1 1h181l3-1 5-24 8-47 7-34v-6l-24-2-11-3-11-7-8-9-4-8-2-6v-30l4-59 1-9-16-6-5-4-8-14-1-5 1-16 5-43 3-30v-5l-1-1zm320 0-1 3 4 26v19l-3 12-4 9-7 10-7 7-1 6 3 20 1 11v27l-2 13-4 13-5 9-7 8-11 5-22 4-14 3-9 3-8 6-7 11-6 9-9 9 1 12 9 50 9 53 2 10 1 1h184l1-2-8-47-11-61-5-27-6-36-9-40-7-49-9-50-8-44-2-12-1-1zm-1251 27-3 3-7 13-10 13-12 10-17 9-13 5-1 2 8 26 9 31 9 30 9 31 2 4h29l2-14 7-75 3-31 1-10-6-18-2-11-1-14-2-3zm20 52-2 13-10 100v12h16l3-5 14-41 17-51v-3l-16-8-9-6-10-9zm132 74m0 7v21l4 1 2-2-2-4-2-11-1-5zm534 63v3zm-4 8m439 18-15 5-24 3-2 1-3 13-7 42-7 38-2 10v8h82l-1-12-16-88-3-20zm-414 70-12 5-6 5v3l6-1 15-10v-2z" fill="#FA6354"/>
<path transform="translate(460,844)" d="m0 0h3l7 23 12 38 12 41 10 37 15 65 4 17 2 14 4 20 2 3 2 25 2 18 5-3 11-12 9-12 3 1 5 67 1 32v57l-1 28-4 39-5 29-5 23-9 27-6 13-7 13h2v60l1 10 4-9 7-11 9-9 7-8 7-7 7-8 7-7 4 2 9 30 11 35 8 27 7 24v2l-7-1-30-8-24-6-22-8-5-2-1 185h478l2-8 7-8 12-6 30-10h4v-8l6-7 16-7 17-5 7-8 2-4v-10l-2-12-2-21-17 10-11 8-19 13-18 13-11 6-2-2-1-11 2-9 6-10 13-17 4-6 2-2-4-3v-6l7-14 8-10 7-8 1-6v-10l-8-36-9-41-10-49-9-51-1-3-6 5-38 19-19 10-42 21-19 10-76 38-19 10-16 8-27 14-3-1v-105l1-104 2-102 1-65 3-1 11 6 14 9 21 13 16 10 23 14 23 15 18 11 19 12 20 12 20 13 20 12 18 11 20 12 2 1v-66l3-19 5-15 8-9 11-7 13-8 12-7 28-12 23-7 36-8 22-3 30-2h30l33 2 29 3 41 7 34 7 13 4 5 1-3 34-6 49-5 38-9 75-2 7v10l-2 8-63 1-6 32-9 50-8 46-8 45-16 89-8 44-9 53-1 8h184l1-9 6-32 5-30 8-39 10 1-6 36-7 40-5 26-1 8h82l-12-67-7-39-1-13 8-4 2 2 7 41 6 33 7 41 1 5h184l-7-43-12-66-5-27-6-36-9-40-7-49-9-50-8-44-2-12-23-1-5-27-11-65-6-31-10-46-6-24-3-15-2-6-3-15-4-13-3-17-6-20-5-17-8-25-5-15-4-13-10-27-14-29-12-17-3-4 1-1 119-1 11-1 1 2h95v3l-14 12-9 10-10 14-9 17-5 16-6 25-5 40 2 11 5 11 4 13 7 27 13 40 5 21 4 23 2 26v19l-2 18-5 16-6 12-9 12-10 10-16 9-7 4v24l6 39 9 49 5 25 3 12 2 2 8-9 5-4 22-8 14-6 7-1-1 17-5 41-5 48-3 9-2 1-8-6-8-9-7-9-3-2v-2l-4-2-2-2 4 27 12 68 11 62 3 17v5l111 1-1-524 1-124-100 1h-56l-2-6v-16h173l1 1v668l15-1h56l7 1v2h-730v-2h30l2-15 9-48 8-48 8-42 11-62 11-60 11-64 5-27 1-10-2 1-9 1h-45l-67-1 5 16 3 13 4 35 1 37-1 35-4 47-5 34-8 46-6 29-2 8-2 5 1 5 5 14 2 9v14l-3 18-3 9h22l15 1-1 2h-736v-2h50v-273l-13 8-10 4-11 2h-19l-16-3-3-1-3 12-7 20-12 36-8 25-1 5h58l1 1v20l-3 2h-3l4 3 1 5-1 6-4 1v2h4v11l-3 19-4 17-8 20-6 11-8 11-7 8-8 7-1 20 32 1v2h-362v-3h160l89 1-1-20-4-5-8-7-11-14-8-15-6-16-5-22-3-19 1-9-1-2v-11l2-4h-3v-21h54l-14-47-9-30-8-26-5-17v-2l-13 3-7 1h-25l-16-4-12-6-11-8-10-10-9-12-9-15-10-24-6-20-7-33-4-29-3-37-1-16v-72l3-54 4-47 7-56 4 2 7 9 12 14 13 15 10 13 12 15 10 13 12 16 12 17 13 18 14 21 6 11 2 1 3-14 6-20 14-41 10-26 12-31 10-22 13-29 14-29 8-16 19-37 9-16 10-19 14-24zm-78 553-3 3-7 13-10 13-12 10-17 9-13 5-1 2 8 26 9 31 9 30 9 31 2 4h29l2-14 7-75 3-31 1-10-6-18-2-11-1-14-2-3zm20 52-2 13-10 100v12h16l3-5 14-41 17-51v-3l-16-8-9-6-10-9zm132 74m0 7v21l4 1 2-2-2-4-2-11-1-5zm534 63v3zm-4 8m25 88-12 5-6 5v3l6-1 15-10v-2z" fill="#FACFCA"/>
<path transform="translate(460,844)" d="m0 0h3l7 23 12 38 12 41 10 37 15 65 4 17 2 14 4 20 2 3 2 25 2 18 5-3 11-12 9-12 3 1 5 67 1 32v57l-1 28-4 39-5 29-5 23-9 27-6 13-6 11-12 14-5 6h-2v2l-11 7-10 4-11 2h-19l-16-3-3-1-3 12-7 20-12 36-8 25-1 5h58l1 1v20l-3 2h-3l4 3 1 5-1 6-4 1v2h4v11l-3 19-4 17-8 20-6 11-8 11-7 8-8 7-1 20 32 1v2h-362v-3h160l89 1-1-20-4-5-8-7-11-14-8-15-6-16-5-22-3-19 1-9-1-2v-11l2-4h-3v-21h54l-14-47-9-30-8-26-5-17v-2l-13 3-7 1h-25l-16-4-12-6-11-8-10-10-9-12-9-15-10-24-6-20-7-33-4-29-3-37-1-16v-72l3-54 4-47 7-56 4 2 7 9 12 14 13 15 10 13 12 15 10 13 12 16 12 17 13 18 14 21 6 11 2 1 3-14 6-20 14-41 10-26 12-31 10-22 13-29 14-29 8-16 19-37 9-16 10-19 14-24zm-78 553-3 3-7 13-10 13-12 10-17 9-13 5-1 2 8 26 9 31 9 30 9 31 2 4h29l2-14 7-75 3-31 1-10-6-18-2-11-1-14-2-3zm20 52-2 13-10 100v12h16l3-5 14-41 17-51v-3l-16-8-9-6-10-9z" fill="#01C0C2"/>
<path transform="translate(1034,614)" d="m0 0h56l36 1 133 1 5 3 6 7 1 2 1 250-1 2-5 1 1 4 5 3 1 9-2 14-6 11-6 5-7 2-9 1h-185l-1 48-1 25-1 2 2 1h-59l-1-20-1-56h-187l-11-2-6-4-5-4-4-9-1-17 1-4 6-4 2-5-9-2v-247l2-7 4-5 7-4 192-1z" fill="#01C0C2"/>
<path transform="translate(1482,933)" d="m0 0h9l10 3 12 8 6 8 9 13 9 19 6 12 12 33 4 13 6 19 5 16 8 28 4 16 2 10 5 18 2 11 3 11 5 22 6 25 5 26 5 24 10 57 4 25 4 20 3 22 1 7v19l-3 12-4 9-7 10-7 7-1 6 3 20 1 11v27l-2 13-4 13-5 9-8 9-11 5-22 4-14 3-9 3-8 6-11 18-10 10-2 4-6 3-6 1-13 4-24 3-2 1h-9l-1-1-24-2-11-3-11-7-7-7-5-8-3-9v-30l4-59 2-9-12-3-9-6-7-11-3-9 1-16 5-43 3-30 1-9 1-5v-11l2-6 6-50 6-47 6-48 4-36 2-19 6-34 3-21 2-12 3-17 5-29 9-42 6-18 7-13 11-12 9-7 11-5z" fill="#FED01A"/>
<path transform="translate(1218,1125)" d="m0 0h30l33 2 29 3 41 7 34 7 13 4 5 1-2 22h-1l-1 6-17 2-18 3-16 2-17 3-42 8-16 4-17 5-10 2-10 3-9 4-13 5-19 7-10 5-24 14-12 9h-2l-1 3-3 3-1 5v20l-1 34-2 23-1 51-3 54-2 23-1 20v24l-1 12-2 11-6 16-7 8 5-4 5-10 2-8 5 2 10 10 7 10 9 17v10l-20 14-18 13-12 9-4 4-15 9-8 6-19 13-18 13-11 6-2-2-1-11 2-9 6-10 13-17 4-6 2-2-4-3v-6l7-14 8-10 7-8 1-6v-10l-8-36-9-41-10-49-9-51-1-3-6 5-38 19-19 10-42 21-19 10-76 38-19 10-16 8-27 14-3-1v-105l1-104 2-102 1-65 3-1 11 6 14 9 21 13 16 10 23 14 23 15 18 11 19 12 20 12 20 13 20 12 18 11 20 12 2 1v-66l3-19 5-15 8-9 11-7 13-8 12-7 28-12 23-7 36-8 22-3zm-150 468v3z" fill="#FEBEBA"/>
<path transform="translate(845,642)" d="m0 0h365v209l-2 2h-308l-55-1-1-9z" fill="#3D3639"/>
<path transform="translate(1485,446)" d="m0 0 12 1 14 4h16l16-4 10 1 8 4 6 7 3 9 2 34 4 13 5 8 4 10v14l-5 12-5 6-7 3 2 5 5 11 3 11 1 8v20l-2 26-3 18-7 21-8 16-6 10-10 13 2 9 11 39 9 4 11 6 13 10 8 8 11 15 8 16 7 19 6 20 11 56 2 8v5l-10 1h-122l-9-6-10-3h-9l-12 4-12 7-10 10-7 11-5 11-6 21-12 60-3 1-6-20-12-28-3-5 2-5 7-7 9-11 12-16 12-17 12-19 15-28 10-26 4-15 1-8v-18l-3-12-6-10-8-7-9-4h-14l-9 2v-3l15-11 14-8 4-2 1-22v-7h-7l-13-4-12-7-6-7-8-15-5-12v2l5 12v9l-6 6h-6l-9-6-5-8-1-6v-22l-2-12-4-10-5-10-1-5v-11l4-12 12-24 7-17 5-18 6-11 7-9 12-7 9-3h3l-8-16-1-4v-9l7-10 10-10 3-10 1-15 4-10 6-7 8-5z" fill="#FA6253"/>
<path transform="translate(560,1118)" d="m0 0 3 1 5 67 1 32v57l-1 28-4 39-5 29-5 23-9 27-6 13-6 11-12 14-5 6h-2v2l-11 7-10 4-11 2h-19l-16-3-3-1-3 12-7 20-12 36-8 25-1 5h58l1 1v20l-3 2h-3l4 3 1 5-1 6-4 1v2h4v11l-3 19-4 17-8 20-6 11-8 11-7 8-8 7-1 20 32 1v2h-362v-3h160l89 1-1-20-4-5-8-7-11-14-8-15-6-16-5-22-3-19 1-9-1-2v-11l2-4h-3v-21h54v-4h4l1 4h29l2-24 6-65 3-31 1-10-6-18-2-11-1-14-1-2-4-2 4-2 2-9 1-9 4-12h2v-2l4-1-1-9 6-16 4-9 6-10 5-13 7-12 3-5 5-3 1-7 6-10 9-14h2l1-5 7-10 7-8 3-3 3-7 11-14 9-12 5-5 2-1 3 2 1-2-1-5 4-7 8-10 14-14 1-2h2l1-6 5-2 12-13zm-158 331-2 13-10 100v12h16l3-5 14-41 17-51v-3l-16-8-9-6-10-9z" fill="#03D8DD"/>
<path transform="translate(780,1137)" d="m0 0 6 2 18 11 19 12 16 10 20 12 44 28 47 29 17 11 20 12 18 11 20 12 2 1 1-4 2 12 4 37 4 31 1 12 1 4-6 5-38 19-19 10-42 21-19 10-76 38-19 10-16 8-27 14-3-1v-105l1-104 2-102 1-65z" fill="#CAFBFC"/>
<path transform="translate(186,1013)" d="m0 0 4 2 7 9 12 14 13 15 10 13 12 15 10 13 12 16 12 17 13 18 14 21 6 11 2 1 1-2-1 14-6 26-3 20-2 6v18l-2 20-4 8v4l5 4 2 8 3 20 5 12 6 12 11 15 2 4h2l4 5 2 6 12 3 10 6 11 4 6 4 5 2-2 1-2 6-5 9-10 13-13 11-17 9-13 5 5 17 12 41 9 30 8 28v3h-4l-18-59-7-25-8-25-2-9-13 3-7 1h-25l-16-4-12-6-11-8-10-10-9-12-9-15-10-24-6-20-7-33-4-29-3-37-1-16v-72l3-54 4-47z" fill="#03D8DD"/>
<path transform="translate(1642,941)" d="m0 0 2 2h95v3l-14 12-9 10-10 14-9 17-5 16-6 25-5 40 2 11 5 11 4 13 7 27 13 40 5 21 4 23 2 26v19l-2 18-5 16-6 12-9 12-10 10-16 9-7 4-39 1-3-17-7-39-5-29-11-55-7-27-5-24-2-6-3-15-4-13-3-17-6-20-5-17-8-25-5-15-4-13-10-27-14-29-12-17-3-4 1-1 119-1z" fill="#FCEBE4"/>
<path transform="translate(1438,802)" d="m0 0h14l10 5 9 8 6 12 2 9v18l-3 17-9 25-8 16-11 21-11 17-10 14-14 19-13 15-5 6 2 5 12 27 5 15 1 8 3-1-1 11-2 1-50 3h-48l-46-2h-350l-11-1-2-2 5-1-5-5v-2l-3 1 2-4 5-1h103l2-5 8-7 33-16 13-5 3-1h11l14 5 9 6 8 7 12-3 25-9 41-14 14-5 2-2-3-2h12l29-9 19-7 12-4 4-1 2-4 8-12 10-13 21-28 10-14 10-13 16-21 11-14 8-10 6-8h2l2-4 12-14 9-9h2l1-3 8-7 7-7 1 2z" fill="#FCA5A0"/>
<path transform="translate(1097,326)" d="m0 0h3v57l-2 97-1 62v54l-3 7-7 4-11 3-15 1-17-2-18-5-19-8-23-13-20-11-14-8-20-11-14-7-22-12-25-14-49-27-2-3 8-6 24-14 21-12 29-17 27-16 28-16 24-14 26-15 21-12 27-16 29-17z" fill="#FEF6D6"/>
<path transform="translate(610,684)" d="m0 0h130l8 2 6 5 1 2 2 72v44l-2 65-2 60-2 30-7 6-1 2 12 1v1l-18 1-1 1v89l1 6h-50l-80-1v-1l86-1 3-1-8-2-20-1-13-2-8-1v-1l12-1-55 1-1-1-1-35v-330l3-6zm89 24-82 1-5 3-3 3-1 4v10l2 1 52 1h84v-15l-3-6-7-2zm-35 49v12h-43l2 2h12l1 2 1-1 26-1v25h-27v-16h-1v17h-16v1l15 1 1 27h-11v1h11v26h-17v1l9 1h8v25h-16l3 2 12 1 1 26h-11v1l10 1 1 25h-14l-1 2h15v26h-14v1l13 1 2 4 1-3h25l1 24h-26l-1-17h-1l-1 19 3 1h25v24l-13 1h-13v-15h-1v16h-16v1l17 1h27v27h-20l1 2h22l-1-6v-23h26v28h-19v1h21l-1-29h9l7-1-1-2h-14v-25l10-1v-1l-10-1-1-25 8-1v-1l-7-1-1-25h30v-2l-3-1h-26l-1-24h26l2 2 1-2 3-2h-4v-22l1-4 14-1 1-2h-16v-25l15-1v-2h-15v-25h14v-2h-14v-26h16l1-3h-17l1-24 17-1v-2h-18v-11h-1v11l-27-1h-26l-1-11z" fill="#FDEBE5"/>
<path transform="translate(1684,1070)" d="m0 0h173l1 1v668l15-1h56l7 1v2h-730v-2h30l2-15 9-48 8-48 8-42 11-62 11-60 11-64 5-27 1-20 1-1h75v10l-2 8-63 1-6 32-9 50-8 46-8 45-16 89-8 44-9 53-1 8h184l1-9 6-32 5-30 8-39 10 1-6 36-7 40-5 26-1 8h82l-12-67-7-39-1-13 8-4 2 2 7 41 6 33 7 41 1 5h184l-7-43-12-66-5-27-6-36-9-40-7-49-9-50-8-44-2-12-23-1-2-12v-6h37l1 24 6 39 9 49 5 25 3 12 2 2 8-9 5-4 22-8 14-6 7-1-1 17-5 41-5 48-3 9-2 1-8-6-8-9-7-9-3-2v-2l-4-2-2-2 4 27 12 68 11 62 3 17v5l111 1-1-524 1-124-100 1h-56l-2-6z" fill="#EF6B5D"/>
<path transform="translate(1271,850)" d="m0 0h1v28l-1 2-5 1 1 4 5 3 1 9-2 14-6 11-6 5-7 2-9 1h-185l-1 48-1 25-1 2 2 1h-59l-1-20-1-56h-187l-11-2-6-4-5-4-4-9-1-17 1-4 6-4 2-5-7-1v-1l136-1h350v-26z" fill="#FBEBE5"/>
<path transform="translate(1555,777)" d="m0 0 8 1 13 7 13 10 8 8 11 15 8 16 7 19 6 20 11 56 2 8v5l-10 1h-122l-9-6-10-3h-9l-12 4-12 7-10 10-7 11-5 11-6 21-12 60-3 1-6-20-12-28-3-5 2-5 7-7 9-11 12-16 12-17 12-19 15-28 10-26 4-15 1-8v-18l-3-12-6-10-8-7-9-4h-14l-9 2v-3l15-11 14-8 5-1 5 4 11 5 13 4 7 1h9l15-3 15-6 14-8z" fill="#3C3336"/>
<path transform="translate(389,1569)" d="m0 0h1v5l16-1 3-4 4 1v4h58l1 1v20l-3 2h-3l4 3 1 5-1 6-4 1v2h4v11l-3 19-4 17-8 20-6 11-8 11-7 8-8 7-1 20 32 1v2h-362v-3h160l89 1-1-20-4-5-8-7-11-14-8-15-6-16-5-22-3-19 1-9-1-2v-11l2-4h-3v-21h54v-4h4l1 4h29l1-4 3 1z" fill="#FA6253"/>
<path transform="translate(550,1131)" d="m0 0 3 3v7l-13 40-7 19-6 16-4 2-1-1 1 4v7l-6 20-3 8-9 25-3 3h-2l1 9-4 13-7 20-6 17-4 14-5 5-2 16-5 17-13 36-6 19-2 1-2-3 1 7-4 14-2 5-9-3-14-8-13-12-1-1-2 12-10 100-2 9h-3v-11l7-75 3-31 1-10-6-18-2-11-1-14-1-2-4-2 4-2 2-9 1-9 4-12h2v-2l4-1-1-9 6-16 4-9 6-10 5-13 7-12 3-5 5-3 1-7 6-10 9-14h2l1-5 7-10 7-8 3-3 3-7 11-14 9-12 5-5 2-1 3 2 1-2-1-5 4-7 8-10 14-14 1-2h2l1-6 5-2z" fill="#02D8DD"/>
<path transform="translate(254,1102)" d="m0 0 4 2 5 5 1-2 13 19 12 16 18 27 4 8 2 1 1-2-1 14-6 26-3 20-2 6v18l-2 20-4 8v4l5 4 2 8 3 20 5 12 6 12 11 15 2 4h2l4 5 2 6 12 3 10 6 11 4 6 4 5 2-2 1-2 6-5 9-10 13-13 11-17 9-11 4h-2l-4-11-2-5v-13l-5-3-6-21-3-12-3-9-7-22-6-20-2-7v-15l-5-4-6-18-7-24-5-18-3-8-3-10v-10l-4-4-8-26-6-20-6-22v-6l5-9 4-8h2l2-5 11-17z" fill="#02D8DD"/>
<path transform="translate(832,1006)" d="m0 0h379l-5 5-50 17-26 9-12 4-4-2-11-9-14-6-4-1h-11l-14 5-38 19-6 7-1 2-103 1-6 2-1 7v4l-15 1h-74l-1-4v-17l11-6 4-5 3-8v-16z" fill="#3C3437"/>
<path transform="translate(460,844)" d="m0 0h3l7 23 12 38 12 41 10 37 15 65 4 17 2 14 4 20 2 3v19l-3-1-1-3-2-17-3-9-2-2-4-13-1-8-2-1-8 4-4 4-7 3-5 4-4 4-7 4-10 6-15 11-10 7h-2v2l-4 2-2 18-1 19-2 19-2 9-3 38 2 3 5-1 10-7 1 2-6 7h-2v2l-4 1-2 4-5 5-1 10v5h-2l1 7h-2v15l-1 12-1 3 2 1h-3l2 1-2 10-4 14-5 1 2-4-1-1-1-16 1-16 3-18v-8h1v-17l-1-12-2-5 3-1 3-9 1-4 1-6 1-3 3-24 2-11 2-22v-22l-3-8h2l-2-9 4 1 3-17 2-13 1-16 3-17v-27l-2-7-1-7-4-4 1-3 5 2 2-7v-5l2-2 4-11 6-36 4-37v-14l-4 1v-3l-3-1 2-3-1-1h-2v4h-4l2-6 11-19z" fill="#03B4BA"/>
<path transform="translate(1684,1070)" d="m0 0h173l1 1v668l15-1h56l7 1v2h-98v-2h4l-1-524 1-124-100 1h-56l-2-6z" fill="#F96557"/>
<path transform="translate(627,742)" d="m0 0 7 2 2 1 1-2h24l4 2 5-3 9 1h38l26 2 1 3v24l1 10v13l-1 5 1 12v10l-2 6 1 1 1 17-1 9 1 2v20l-1 4 1 16v7l-1 7 1 3v21l-1 3 1 2 1 11v8l4 2v4l-6 5-1 2 12 1v1l-18 1-1 1v89l1 6h-50l-80-1v-1l86-1 3-1 1-2 34 2v-3h2l-1-3v-7l-2-6-3-1h-12l-5 1h-15l-2-1v-25l2-1 12-1-14-1-1-8v-17-3-25l5-1-5-2v-25h30v-2h-29l-1-1v-24l2-1h24 3l-2-3v-20l2-5 14-1-15-1-1-11v-12l1-2 5-1h10v-2h-15l-1-18 1-7h14v-2h-14v-26l16-1 1-2h-17v-24l1-1h17v-2h-72-2l-53 1-2-4v-13l1-7 5-3z" fill="#FACFCA"/>
<path transform="translate(531,1446)" d="m0 0 3 1v60l1 10 4-9 7-11 9-9 7-8 7-7 7-8 7-7 4 2 9 30 11 35 8 27 7 24v2l-7-1-30-8-24-6-22-8-5-2v187l-20 1h-48v-2h50v-273l-2-1 5-4 8-10zm3 77m0 7v21l4 1 2-2-2-4-2-11-1-5z" fill="#FEF6D6"/>
<path transform="translate(1484,1266)" d="m0 0 8 1 9 4 14 10 4 4 3 12 2 20 2 33 2 16 2 39 1 11 2 42 2 15 1 16v11l-1 3-5-2-8-16-7-15-7-21-5-13-5-5-13-5v-2l-10-1-11-3-12-3-10-4-9-4-7-3-2-2 1-6 15-13 12-11 3-1 2-4 10-8 11-7 5-6v-15l-2-28v-23l1-12z" fill="#FEB40A"/>
<path transform="translate(1766,660)" d="m0 0 5 1 29 16 16 9 26 14 21 12 24 14 14 8v4l-15 9-22 12-25 15-17 9-14 8-24 14-8 5-5-1-1-8-3-92-2-48z" fill="#CAFBFD"/>
<path transform="translate(219,661)" d="m0 0 5 1 21 11 21 12 24 13 21 12 27 15 13 8 3 2-1 3-25 14-29 17-43 24-23 13-6 3h-2l-1-3-3-62-3-69v-12z" fill="#FDEBE5"/>
<path transform="translate(1530,1295)" d="m0 0 9 3 5 4 9 4 9-1 7-2 10-2 2 3 2 11 2 4 3 21 2 5 2 17 1 2 1 17 3 16 5 30-1 8-4 2-7 1-3 2h-3v2l-6 4-6 8-10 17-5 8h-2l-2 5-4 7-5 1-3-3-5-37-2-44-2-24-2-33-2-21v-33z" fill="#FEB40A"/>
<path transform="translate(611,771)" d="m0 0h24 2 26l1 4-1 21-12 1h-13-3v2 54l-8 1 8 1v25l-13 1 12 1 1 1v26 2 25l-14 1 14 1v26l-4 1 4 1h2 25l1 1v24l-2 1h-24-2l2 1h25l1 1v24l-1 1-13 1h-11-3l-2 1 2 2v23l-2 1h-15l-6-3-1-10v-40l2-3-3-1-1-9 1-17-1-4v-52l-1-11v-120l2-5z" fill="#FACFCA"/>
<path transform="translate(1303,1352)" d="m0 0h75v10l-2 8-63 1-6 32-9 50-8 46-8 45-16 89-8 44-9 53-1 8h184l1-9 6-32 5-30 8-39 10 1-6 36-7 40-5 26-1 8h82l-12-67-7-39-1-13 8-4 2 2 7 41 6 33 7 41 1 5 175 1v2h-505v-2h30l2-15 9-48 8-48 8-42 11-62 11-60 11-64 5-27 1-20z" fill="#F66658"/>
<path transform="translate(737,974)" d="m0 0h52l26 1 1 21 6 2 8 6 2 2 2 9v16l-4 10-7 6-7 3v20l-1 1-19 1-59-1-2-6v-89z" fill="#FECF19"/>
<path transform="translate(1581,1176)" d="m0 0 10 2 3 5v2l3 1 8 32 5 26 5 24 10 57 4 25 4 20 3 22 1 7v19l-3 12-2 5-4 2h-18l-3-1-2-5-3-25-3-17-2-9-2-16-6-36-4-23-3-19-2-20-3-20-3-10-1-20 1-3h2l2-9-1-6v-17l2-4z" fill="#FEB40B"/>
<path transform="translate(1109,1678)" d="m0 0 7 4 5 4 9 4 8 2h8l8-2 10-6 4-2 4 15v14l-3 18-3 9h22l15 1-1 2h-685v-1l16-1v-1h478l2-8 7-8 12-6 34-11h7l7-5 7-1 3-1 2-4 4-1 6 4 8 11 3 1-3-12-3-10-1-7z" fill="#02C0C2"/>
<path transform="translate(389,1569)" d="m0 0h1v5l16-1 3-4 4 1v4h58l1 1v20l-3 2h-3l4 3 1 5-1 6-4 1v2h4v2l-6 1h-165l-1 4 1-9-1-2v-11l2-4h-3v-21h54v-4h4l1 4h29l1-4 3 1z" fill="#FBCAC6"/>
<path transform="translate(1128,1538)" d="m0 0 5 2 10 10 7 10 9 17v10l-20 14-18 13-12 9-4 4-15 9-8 6-19 13-18 13-11 6-2-2-1-11 2-9 6-10 13-17 4-6 2-2-4-3v-6l7-14 8-10 7-8 2-8 18-1 12-3 10-5 6-8zm-60 55v3z" fill="#02C0C2"/>
<path transform="translate(1421,651)" d="m0 0h3l1 4v26l4 17 6 12 5 7 5 5 11 10 12 6 8 3 11 3 13 1 9-1 15-5 15-8h2l1-3 6 18 8 29 1 2-19 11-15 6-15 3h-9l-14-3-13-5-8-5-2-3 1-22v-7h-7l-13-4-12-7-6-7-8-15-5-12v2l3 10-3-3-4-13 4-29 3-14 5-8z" fill="#FCA5A0"/>
<path transform="translate(1151,642)" d="m0 0h57l1 1v8l-2 8-46 1h-49l-36 1h-186l-26-1-2-1-10-1-5-4v-11z" fill="#292124"/>
<path transform="translate(186,1013)" d="m0 0 4 2 7 9 12 14 13 15 10 13 12 15 10 13 9 12v3l-3-1-4-5-3 1-8 13-5 8h-2l-1 5-4 7-3 5 1 11 8 27 6 19 5 17 4 4v10l5 16 5 15 7 25 4 13 4 10 4 3v15l4 13 6 21 6 18 6 21 5 18 5 3v13l5 12 1 10 7 22 9 31 9 30 8 28v3h-4l-18-59-7-25-8-25-2-9-2-1-2-9-5-12-2-1v-2l-5-2-11-6-4-3 1-2 13 6h5l-1-8-7-26-7-24-9-27-3-10-8-7 1-3 2-1-1-8-10-36-4-12-7-26-5-6-9-5-23-12-8-5-18-9v-2h-3l1-3 15 8 12 6 15 8 15 9 3 1 1-4-6-19-6-21-7-25-3-8-18-8-16-8-3-2-8-2-1-4 13 5 9 4 19 8 4 1-6-18-11-38-9-31-7-22-2-6z" fill="#01C0C2"/>
<path transform="translate(501,975)" d="m0 0 2 4 15 64 1 8-3 3-2-1-2 4-8 6-9 6-11 9-5 1h-2l-7 6-6 3-5 4h-2v2h-3v3l-5 4-1-1-4 4-4 1-2-6 1-11 2-14 1-18 4-35v-5l2-5 3-2v3l5-5 15-9 8-6 5-6 5-5 6-4 5-1z" fill="#01C0C2"/>
<path transform="translate(531,1446)" d="m0 0 3 1-1 65 1 228-20 1h-48v-2h50v-273l-2-1 5-4 8-10z" fill="#F66759"/>
<path transform="translate(1e3 929)" d="m0 0h45l6 2v32l1 10v30l-1 2 2 1h-59l-1-20v-55z" fill="#FACFCA"/>
<path transform="translate(1746,1475)" d="m0 0h3l-1 17-5 41-5 48-3 9-2 1-8-6-8-9-7-9-3-2v-2l-4-2-2-2v9l-2-4-3-14-4-24-2-15v-10l3 2 8-9 5-4 22-8 14-6z" fill="#FDEBE5"/>
<path transform="translate(560,1118)" d="m0 0 3 1 5 67v25l-21 8-16 7-3 5-5 13-12 37-1 7-2 5-6 14-5 14-6 21-6 17-1 8-3 5-3 6-8 24-5 16-9 27v8l-5 6-6 17-10 28-9 29-10 30-3 7h-4l2-9 28-84 2-8 4-14-1-9 4 4 11-33 8-22 5-17 2-16 3-1 2-4 6-21 5-12 7-21 3-10v-9l4-3 10-28 7-21 1-4v-7l-1-5 4 1 3-5 4-12 13-37 7-22v-7l-1-4z" fill="#04B7BC"/>
<path transform="translate(463,865)" d="m0 0 7 2 12 38 12 41 5 18-2 8-4 4-6 3-6 4-8 7h-2v2l5-1-3 4-4 1v-2l-3 1-4 4h-2l1 3h-2l-1 2-3 1v-2l-4-2v-2l-3 1 1-17 1-4 1-18 2-17 2-21 3-31 2-21 1-3h2z" fill="#02C0C2"/>
<path transform="translate(973,631)" d="m0 0h22l5 1v2h3l3 3 7-2 5 1v2l46 1h21l1-2h10l5-1v3l105 1 6 2 2 58 1 4-1 3 1 9-1 4v6l1 4h-1v38l1 1 1 16-1 7v18l-1 4-1 26-2 13-1 1-17 1h-327l-10 2h-6l-7-3-1-3v-13l-1-16-1-110-1-4 1-3-1-5 1-3 1-44v-7l3-6 31-1v-2l9-2h11l13-1 3-1 16 1 6-1h17zm-128 11-1 201 1 9 57 1h306l2-2v-209z" fill="#02B4BA"/>
<path transform="translate(389,1569)" d="m0 0h1v5l16-1 3-4 4 1v4h58l1 1v15l-1 3h-174v-19h54v-4h4l1 4h29l1-4 3 1z" fill="#F96253"/>
<path transform="translate(1502,988)" d="m0 0 3 2 2 36 2 12 3 44 3 49 2 14 4 57 1 26 3 29 3 45 1 28 3 32 2 33 2 36 1 21 3 23 3 38 1 20v34h-4l-1-4-1-35-2-13-2-42-2-15-2-45-1-8-2-39-3-27-2-34-2-18-2-32-2-17-2-43-1-8-2-38-2-12-4-57-2-39-2-15-1-20v-16z" fill="#FED154"/>
<path transform="translate(1159,1592)" d="m0 0h1v21l-2 15v14l2 3-1 3-4 2 1 5 5 2 6 1-1 6-2 5 1 5 2 5-1 4-8 6-6 3-6 1h-8l-14-4-11-8-4-2-2 1 1 7 5 17v5l-4-1-8-11-5-3-5 2-4 4-9 2-5 4-7-1v-7l6-7 16-7 17-5 7-8 5-5 10-2 6-1v-4l-4-2 1-3 3-3-1-3-9-2v-2l11-2h13l3-1 3-9 3-22 2-15zm-70 97-12 5-6 5v3l6-1 15-10v-2z" fill="#FEBEBA"/>
<path transform="translate(1721,410)" d="m0 0 2 1-5 25-9 35-2 10-4 1-17-17-8-7-8-8-7-8-13-13 1-2 40-10 19-5z" fill="#FEF6D6"/>
<path transform="translate(192,1026)" d="m0 0 4 2 5 4 1-2 10 11 9 11 11 14 12 15 10 13-4 9-7 12-5 9-3 4-3 6-5 2-2-2-11-34-11-38-9-29z" fill="#03D8DD"/>
<path transform="translate(344,1719)" d="m0 0h81l1 5-1 14 32 1v2h-362v-3h160l89 1z" fill="#3D3336"/>
<path transform="translate(1581,1176)" d="m0 0 10 2 3 5v2l3 1 8 32 5 26 2 9v13l-4 8-3 5-3 1-5-3-4-8-5-11-5-13-6-4-1-5h-2l-1-20 1-3h2l2-9-1-6v-17l2-4z" fill="#FEB50C"/>
<path transform="translate(693,250)" d="m0 0 6 2 22 13 18 11 19 12 17 10 17 11 26 16 19 12 10 6v4l-78 39-19 10-42 22-25 12h-3v-11l4-60 6-82 2-25zm3 6m1 1-2 10-4 51-3 35-4 56v13l7-1 35-17 18-10 32-16 17-9 8-5 17-8 16-9 2-2-1-4-25-15-23-15-23-14-11-7-16-9-23-15-15-9z" fill="#FDFDFC"/>
<path transform="translate(1534 1e3)" d="m0 0 4 1 4 10 2 13 1 18 3 13 4 23 3 17 3 18 3 25 5 25 3 24 3 17 1 12 1 3 2 16 2 6 4 27 2 18 4 25 9 54 2 15 2 8-1 16-1-4h-2l-2-15-2-9-1-17-2-9-1-10-3-10-2-16-2-4-2-14-2-5-3-24-3-21-2-7-4-29-2-17-2-8-2-16-6-34-2-13-3-23-3-13-5-31-2-9-2-18-2-9-1-11-1-7z" fill="#FED74D"/>
<path transform="translate(1202,1318)" d="m0 0h40l14 2h62l54-2h8v8l-5-2h-14l-20 2-100 1h-56l-16 2-9 5-2 12v15l2 22 2 25 1 8 1 26 1 22v11h-2l-2-16-4-45-2-14-2-19-2-17 1-12v-8l2-9 9-10 8-4 13-2z" fill="#FFBEBA"/>
<path transform="translate(371,1597)" d="m0 0h45l41 1 13 2 1 5-1 3h-2v2l-4 1h-104l-39-1-11-2-6-1v-4l3-1v-2l7-1 21-1z" fill="#FCEAE4"/>
<path transform="translate(1123,1555)" d="m0 0 1 3-9 7-9 6-8 4 5 4 2 1v2l-3 2 1 1v6h-2l1 4-3 8-6 7-6 5-5 2-6 1-4 2-14 1v-4l-4-3v-6l7-14 8-10 7-8 2-8 18-1 12-3 10-5zm-55 38v3z" fill="#03B4BA"/>
<path transform="translate(1513,1616)" d="m0 0 2 2 7 41 6 33 7 41 1 5 175 1v2h-263l-13-1v-1h90l-12-67-7-39-1-13z" fill="#BC7E75"/>
<path transform="translate(1113,1501)" d="m0 0 2 2 4 19 3 4-2 5v7l6 2-1 8-6 9-4 5-9 4h-21l-5-2-1-7 8-4 4-1 10-5h2v-2h2l2-6h-7l-13 5h-6v-5h3v-3l-5-1-3-3v-2h-2v-2l12-6 13-5 8-4 4-10z" fill="#FDA6A1"/>
<path transform="translate(561,1129)" d="m0 0h2l2 15 3 42v19l-1 2-16 7-17 7h-3l1-8 12-36 12-34 4-6z" fill="#05D8DD"/>
<path transform="translate(912,1056)" d="m0 0h99l4 1 9 3 7 1 29 1 10 1 2 4-1 1h-106l-57 1v-1l5-1-5-5v-2l-3 1 2-4z" fill="#FACFCA"/>
<path transform="translate(1445,987)" d="m0 0h2v11l-4 59-2 29-3 24-6 72-6 75-3 28-1 16-2 3-2 12h-1v-12l1-22 3-30 4-41 3-33 1-32 4-47 2-17 2-37 1-7 2-37 3-12z" fill="#FFD849"/>
<path transform="translate(1303,1352)" d="m0 0h75v10l-2 8-74 1v-18z" fill="#3C3336"/>
<path transform="translate(186,1013)" d="m0 0 4 2 7 9 4 5v3l-4-2-4-3 9 29 8 26 7 24 9 28h4 2l2-6 7-10 7-14 3-4 2-5h2l8 11v3l-3-1-4-5-3 1-8 13-5 8h-2l-1 5-4 7-3 5 1 11 8 27 6 19 6 21 1 2 1 14-2-2-4-8-1-7-3-7-4-13-6-21-7-25-3-8-18-8-16-8-3-2-8-2-1-4 13 5 9 4 19 8 4 1-6-18-11-38-9-31-7-22-2-6z" fill="#02B7BC"/>
<path transform="translate(666,771)" d="m0 0h25 2 25l1 6-1 19h-25-2l-24 1-2-2v-23z" fill="#FAD1CC"/>
<path transform="translate(1109,1678)" d="m0 0 7 4 5 4 9 4 8 2h8l8-2 10-6 4-2 4 15v14l-1 5-2-2-1-8h-2v-5l-2-1v-4l-4-1-9 3-6-1v-3l-7 1-11-1-5-1h-3l-1 7v9l-2 4-8 3h-3v2l-3-1v-1l-5 4h-9l-11-7-12-5 1-3h7l7-5 7-1 3-1 2-4 4-1 6 4 8 11 3 1-3-12-3-10-1-7z" fill="#02B4BA"/>
<path transform="translate(1837,1218)" d="m0 0 2 1-8 9-7 8-43 43-5 6-8 7-37 37h-2v2l-8 7-10 10-8 7-10 9-9 8-10 7-2-1 13-13 7-8 14-14 8-7 9-10 33-33 8-7 13-12 41-41 8-7z" fill="#FDFDFC"/>
<path transform="translate(533,1738)" d="m0 0h401l15 1v2h-432v-1l16-1z" fill="#A5E1E2"/>
<path transform="translate(129,1192)" d="m0 0 5 1 9 7 6 5-2 1-14-5-1 20-6 72-5 62-1 10 20-9 14-6 3 1-19 11-11 6-11 5-2-2v-11l2-25 7-86 5-53z" fill="#FEF6DA"/>
<path transform="translate(1452,1628)" d="m0 0 10 1-6 36-7 40-5 26-1 8-13 2h-13v-1l11-1 4-1 1-9 6-32 5-30z" fill="#F96758"/>
<path transform="translate(1428,1160)" d="m0 0h1v18l-5 52-4 43-1 9-1 31 1-9 2-1v11l-4 53-2 20-3 51-4 28-4 6h-2l-1-2 1-15 2-12 5-60 2-17 3-46 4-49 2-21 2-23 2-19 2-23z" fill="#FED950"/>
<path transform="translate(1672,642)" d="m0 0h5l-3 9-9 25-15 42-15 39-11 29-4 12-4 6h-1v-8l4-14 11-27 10-28 28-74 2-5-21 4-45 7-12 2h-5l3-2 44-10z" fill="#FDEBE6"/>
<path transform="translate(1528,1344)" d="m0 0h2l2 18 2 33 2 36 1 21 3 23 3 38 1 20v34h-4l-1-4-1-35-2-13-2-42-2-15-2-45-1-8-2-39-2-20z" fill="#FED54F"/>
<path transform="translate(1120,1668)" d="m0 0h28l13 2 4 8-1 5-4 5-8 4-6 1h-8l-14-4-8-6-3-4v-4h2v-2h2l1-4z" fill="#FCAAA5"/>
<path transform="translate(827,350)" d="m0 0h2v3h2v2l-62 31-19 10-42 22-25 12h-3v-11l4-60 1 2 3-1-1 23-3 39 11-4 31-15 18-10 32-16 17-9 8-5 17-8z" fill="#FEFEFD"/>
<path transform="translate(1094,743)" d="m0 0 41 1-1 4h-48l-35 1h-89l-32-1h-28v-4z" fill="#24BBBF"/>
<path transform="translate(1671,1510)" d="m0 0 5 1 2 9 2 20 1 1 1 12-8-4-17-11-14-7-5-5v-3l12-7zm8 32m0 5 1 4z" fill="#FDEBE4"/>
<path transform="translate(1575,1236)" d="m0 0 2 3 4 4 3 2 8 19 5 11 2 3 5 1 3-5 4-8 1-8h1l5 27v5l-7-1-10 2-13 7-2 7h-1l-3-19-2-20-3-20-2-6z" fill="#FED01B"/>
<path transform="translate(379,525)" d="m0 0 11 2 57 14 9 2v4l-30 30-2 3h-2l-2 4-11 11-8 7-4 1-4-16-7-30-7-28zm5 4 1 10 6 23 6 29 3 5 7-6 35-35 6-5 1-4-8-3-40-9-14-5z" fill="#CCFBFD"/>
<path transform="translate(902,750)" d="m0 0h223v1h-6v2l-8 1h-207l-2-1z" fill="#292124"/>
<path transform="translate(1200,280)" d="m0 0 4 2 13 12 12 12 1 3-7 3-29 7h-4l1-8 7-25z" fill="#CBFBFD"/>
<path transform="translate(1136,1732)" d="m0 0h8l1 2 9 1 11-1v3l38 2-1 2h-144l-33-1v-3l2-1 13-2 7-1 5 2 14 1v2h9v-1l25-1h18l2-1v-2z" fill="#03B5BB"/>
<path transform="translate(1581,342)" d="m0 0 2 1 8 32v6l-12-2-24-6-3-3 9-10 11-11z" fill="#FDEBE5"/>
<path transform="translate(493,398)" d="m0 0 6 4 7 7 8 7 8 8-1 3-18 5-14 3h-6l1-9 5-19z" fill="#FDEBE5"/>
<path transform="translate(517,1157)" d="m0 0 2 1-1 4-6 5h-2v2l-7 6-5 5-6 5h-2l-2 4-10 8h-2l-2 4-3 1v2l-6 4-4 2-5 5-6 7-7 5-2-1 8-10h2l3-9 10-9-2-4 6-5v-3l7-4v2l8-5 5-5 8-1 5-8 5-3 2-1v2z" fill="#02B4BA"/>
<path transform="translate(219,661)" d="m0 0 5 1 21 11 21 12 24 13 21 12 27 15 13 8 3 2-1 3-25 14-8 4 2-4 11-6 6-4 2-6-4-5-17-10-9-6-9-5-17-9-18-11-16-8-11-8-10-4-6 1-2 1-2 7-2-4v-12z" fill="#FDFDFC"/>
<path transform="translate(95,1738)" d="m0 0h160l163 2v1h-323z" fill="#0FC5CA"/>
<path transform="translate(306,1416)" d="m0 0 3 3 4 6 2 9 5 12 1 10 7 22 9 31 9 30 8 28v3h-4l-18-59-7-25-8-25-2-9-2-1-2-9-4-10-2-9z" fill="#07B6BB"/>
<path transform="translate(637,993)" d="m0 0h25l1 1v24l-1 1-13 1h-11l-2-1-1-25z" fill="#FAD1CC"/>
<path transform="translate(694,910)" d="m0 0h24l2 3v22l-1 1h-26l-1-1v-24z" fill="#FAD1CC"/>
<path transform="translate(637,966)" d="m0 0h25l1 1v24l-2 1h-24l-1-1-1-21z" fill="#FAD1CC"/>
<path transform="translate(637,799)" d="m0 0h26v26h-26l-1-4v-16z" fill="#FACFCA"/>
<path transform="translate(666,993)" d="m0 0h24l1 1v25l-11 1h-13l-2-1v-25z" fill="#FAD0CB"/>
<path transform="translate(637,827)" d="m0 0h25l1 1v23l-1 2h-24l-2-6v-17z" fill="#FAD1CC"/>
<path transform="translate(700,882)" d="m0 0h12l6 1v25l-2 1h-22l-2-1v-25z" fill="#FAD1CC"/>
<path transform="translate(643,882)" d="m0 0h16l3 1v26h-25l-1-3v-17l1-6z" fill="#FAD1CC"/>
<path transform="translate(693,799)" d="m0 0h25v26h-25l-1-1v-24z" fill="#FACFCA"/>
<path transform="translate(637,1022)" d="m0 0h26v25l-3 1-23-1-1-1v-21z" fill="#FACFCA"/>
<path transform="translate(666,966)" d="m0 0h24l1 1v24l-1 1h-24l-1-1v-24z" fill="#FAD1CC"/>
<path transform="translate(637,938)" d="m0 0h25l1 25-1 1h-25l-1-5v-18z" fill="#FAD0CB"/>
<path transform="translate(665,1022)" d="m0 0h26v22l-2 5h-7l-9-1h-9z" fill="#FACFCA"/>
<path transform="translate(666,938)" d="m0 0h25v26h-25l-1-3v-21z" fill="#FAD1CB"/>
<path transform="translate(693,827)" d="m0 0h25v25l-4 1h-20l-2-1v-24z" fill="#FAD0CB"/>
<path transform="translate(638,910)" d="m0 0h23l1 1v25h-25l-1-3v-19z" fill="#FAD0CB"/>
<path transform="translate(668,910)" d="m0 0h21l2 2v24h-25l-1-7v-18z" fill="#FAD1CC"/>
<path transform="translate(1630,1352)" d="m0 0h37v17l-4 2-31-1-2-12z" fill="#39393C"/>
<path transform="translate(666,827)" d="m0 0h24l1 1v24l-2 1h-22l-1-1-1-22z" fill="#FAD1CC"/>
<path transform="translate(671,882)" d="m0 0h19l1 9-1 17-1 1h-22l-1-1-1-11v-10l1-4z" fill="#FAD1CC"/>
<path transform="translate(666,799)" d="m0 0h25v26h-25l-1-17z" fill="#FAD0CB"/>
<path transform="translate(693,855)" d="m0 0h25v24l-1 1h-24l-1-1v-23z" fill="#FAD1CC"/>
<path transform="translate(637,855)" d="m0 0h25v25h-25l-1-4v-20z" fill="#FACFCA"/>
<path transform="translate(693,771)" d="m0 0h25l1 6-1 19h-25z" fill="#FACFCA"/>
<path transform="translate(326,1272)" d="m0 0 9 6 7 8v2h2l5 7 5 5 5 6 12 8 3 3 2-1 11 21-2 2-5-7-4-2-2-3h-3-4l-6-5-8-11-10-12-5-5-10-13z" fill="#02B4BA"/>
<path transform="translate(1015,1057)" d="m0 0 9 3 7 1 29 1 10 1 2 4-1 1h-106l-57 1v-1h6l1-3h105l2-1-9-6z" fill="#FEBDB9"/>
<path transform="translate(666,855)" d="m0 0h24l1 1v23l-1 1h-24z" fill="#FAD0CB"/>
<path transform="translate(1076,1576)" d="m0 0 11 7 1 5-9 4h-2l-3 10-2 5 1 5-2 3-11 4-2-1-4-4v-6l7-14 8-10zm-8 17v3z" fill="#FCE9E3"/>
<path transform="translate(1440,1046)" d="m0 0h1v15l-7 80-3 35-5 60-7 77-2 3v-12l1-22 3-30 4-41 3-33 2-31 2-20 2-24 2-18 2-26z" fill="#FFF6D6"/>
<path transform="translate(452,1443)" d="m0 0h2v6l-3 10-6 17-10 28-9 29-10 30-3 7h-4l2-9 28-84 2-8 4-14-1-9 4 4 1-2h2z" fill="#07B6BB"/>
<path transform="translate(122,1291)" d="m0 0 2 1 1 3v11l-4 49-1 10 20-9 14-6 3 1-19 11-11 6-11 5-2-2v-11l2-25 3-38 1-3h2z" fill="#FEF6D9"/>
<path transform="translate(1502,988)" d="m0 0 3 2 2 36 2 12 3 44 1 12v20h-1l-2-25-2-17-1-12 1 27 1 8 2 39 2 10v16h-1l-2-16-2-19-3-45-2-39-2-15-1-20v-16z" fill="#FFD849"/>
<path transform="translate(398,1443)" d="m0 0 3 1 1 3-3 35-8 80-2 9h-3v-11l7-75 3-31 1-9z" fill="#0FB8BD"/>
<path transform="translate(1512,944)" d="m0 0h117v1h-113l10 13 5 7 3 8 11 23 9 24 5 13 5 17 6 20 5 15 5 11 1 6v9h-2l-6-20-5-17-8-25-5-15-4-13-10-27-14-29-12-17z" fill="#FCDECE"/>
<path transform="translate(1094,1682)" d="m0 0h7l6 3 3 9 3 11v4l-4-1-8-11-5-3-5 2-4 4-9 2-5 4-7-1v-7l6-7 16-7zm-5 7-12 5-6 5v3l6-1 15-10v-2z" fill="#FA6A5C"/>
<path transform="translate(1873,1133)" d="m0 0 9 1 21 6 12 3v4l-11 12-27 27-5 3-2-1 6-10 14-14 8-7 9-8 1-2-11-2-18-4-7-5z" fill="#FEF6DC"/>
<path transform="translate(1744,1308)" d="m0 0h2l-2 5-1 2h-2l-2 4-8 7-2 5-8 7-10 10-8 7-10 9-9 8-10 7-2-1 13-13 7-8 14-14 8-7 9-10 17-17z" fill="#FDEDE8"/>
<path transform="translate(1730,1098)" d="m0 0 12 2 39 7 25 7 24 8 6 4-2 1-23-5-47-12-29-9-5-2z" fill="#FEF3D8"/>
<path transform="translate(902,699)" d="m0 0h122l14 1v3h-135z" fill="#03B4BA"/>
<path transform="translate(784,906)" d="m0 0 2 4 4 6 3 2v2l4 2 6 4h84l29 1 17 2v1h-124l-11-2-6-4-5-4-4-9z" fill="#FEFEFD"/>
<path transform="translate(299,1614)" d="m0 0h171v2l-6 1h-165l-1 4z" fill="#FCA6A1"/>
<path transform="translate(945,766)" d="m0 0h63l27 1 3 1 16 1v1l-7 1h-71l-35-1-6-1v-2z" fill="#292124"/>
<path transform="translate(1622,1313)" d="m0 0h1l6 37 4 20 1 14h-2v-5h-2l-1-4-4-2-7-8 1-11 2-15 2-9z" fill="#FED021"/>
<path transform="translate(479,1357)" d="m0 0 1 4-3 3-3 16h2l1-5 1 3-8 24-5 16-9 27v8l-5 4 1-6 2-8h-2l-1 5-1-3 6-19 7-20 8-23 2-10 1-11 3-1z" fill="#01BFC1"/>
<path transform="translate(990,829)" d="m0 0h132v3h-131z" fill="#03B4BA"/>
<path transform="translate(1015,745)" d="m0 0h120l-1 3h-154l1-2z" fill="#FDEBE5"/>
<path transform="translate(930,729)" d="m0 0h81l9 1v3h-118v-3z" fill="#03B4BA"/>
<path transform="translate(754,710)" d="m0 0h1l1 14 1 41v44l-1 38h-1l-1-7-1-33v-73z" fill="#FEFEFD"/>
<path transform="translate(1109,926)" d="m0 0h32l37 1 16 1h8l7 1v1h-131l2-2 5-1z" fill="#FEFEFD"/>
<path transform="translate(1246,1738)" d="m0 0 182 1v1l-11 1h-174v-2z" fill="#05BAC0"/>
<path transform="translate(1027,1257)" d="m0 0 2 3v12l4 20 4 43 3 20 2 17v11h-1v-5h-2l-1-2-3-29-5-40-2-20-1-3z" fill="#FACFCA"/>
<path transform="translate(1582,1302)" d="m0 0 2 2 3 15 1 9h2l6 36 3 21 2 8-1 16-1-4h-2l-2-15-2-9-1-17-2-9-1-10-3-10-2-16-2-11z" fill="#FDBC79"/>
<path transform="translate(904,823)" d="m0 0h71l4 2v3h-76z" fill="#292124"/>
<path transform="translate(293,1367)" d="m0 0h2l5 17 2 5 6 21 3 9 4 2-1 11h-1l-1-7-5-8-1 7 1 6-3-1v-2l-5-2-11-6-4-3 1-2 13 6h5l-1-8-7-26-1-6 2 2v3h2l-1-6-2-1z" fill="#01C0C2"/>
<path transform="translate(902,673)" d="m0 0h144v3h-40l-103-1z" fill="#03B4BA"/>
<path transform="translate(912,1056)" d="m0 0h99l2 3-102 1-1 2h-2v-2l-3 1 2-4z" fill="#FDCAC5"/>
<path transform="translate(1569,1233)" d="m0 0h2l3 16 3 20 2 16 1 7v-9l-2-14-1-3-2-18-2-6v-6h2l3 10 4 27 2 18 4 25 1 4v8h-1l-3-12-2-12v11h-1l-2-14-2-5-3-24-3-21-2-7z" fill="#FFD849"/>
<path transform="translate(941,772)" d="m0 0h152l1 3-153-1z" fill="#FCE9E3"/>
<path transform="translate(928,807)" d="m0 0h80l-3 3-5 1-21 1-51-1-1-2z" fill="#292124"/>
<path transform="translate(1403,1145)" d="m0 0h1v13l-4 39-3 23-7 55-4 30-5 45-3 4-1-3 2-6 6-50 6-47 6-48 4-36z" fill="#FFD84A"/>
<path transform="translate(817 1e3)" d="m0 0 5 3 4 11v10l-3 7-4 4h-4v-27l1-7z" fill="#2B2326"/>
<path transform="translate(1690,1501)" d="m0 0 3 2h2l1 7 1 14 2 15 3 11 1 6h2l2 4v3l-4-2-2-2v9l-2-4-3-14-4-24-2-15z" fill="#FBCAC5"/>
<path transform="translate(1022,895)" d="m0 0h12l2 3v14l-4 2-11-1-2-2v-14z" fill="#FACFCA"/>
<path transform="translate(1166,1682)" d="m0 0h2l4 15v14l-1 5-2-2-1-8h-2v-5l-2-1v-4l-4-1-9 3-6-1 1-5 8-2 10-6z" fill="#0BB7BD"/>
<path transform="translate(1506,1046)" d="m0 0h1l3 38 2 14 2 42 1 5 1 28-2-1-2-28-2-10-2-39-2-25z" fill="#FFF6D6"/>
<path transform="translate(1427,1197)" d="m0 0h1v15l-4 49-3 29-2 23-2 3v-12l1-22 3-30 5-54z" fill="#FEF5D5"/>
<path transform="translate(1076,1576)" d="m0 0 11 7 1 5-8 3-6 1-1-2-4 2-5 5-7 14-2-1 1-7 8-13 9-10z" fill="#FA6F62"/>
<path transform="translate(684,359)" d="m0 0 1 2 3-1-1 23-3 39h3v6l-4 2h-3v-11z" fill="#FEFEFD"/>
<path transform="translate(471,1590)" d="m0 0h1v5l-3 2-9-2h-163v-2h174z" fill="#FCA6A1"/>
<path transform="translate(1445,987)" d="m0 0h2v11l-2 26-2 4-1 11-2 1-1-2v-20l1-17 3-12z" fill="#FFD849"/>
<path transform="translate(1512,944)" d="m0 0h117v1h-113l10 13 5 7 3 8 11 23 2 5v3h-2l-8-19-8-16-6-10-9-12z" fill="#FBD9CD"/>
<path transform="translate(490,1330)" d="m0 0h2v9l-4 12-3 8-1 8-3 5-2 3h-2l-1 5h-2l1-9 1-7 3-3 2-12 1-2h2l1-5z" fill="#02B5BB"/>
<path transform="translate(737,974)" d="m0 0h52v1l-32 1-5 1-14 1-1 9v47l1 36h-2l-1-5v-89z" fill="#FFD849"/>
<path transform="translate(1582,1118)" d="m0 0 4 5 4 24 6 22 4 18 5 22 1 9h-2l-8-32-5-24-2-6-3-15-4-13-1-9z" fill="#FBDCCD"/>
<path transform="translate(902,803)" d="m0 0h105v3h-30l-75-1z" fill="#FDEBE5"/>
<path transform="translate(1085,1685)" d="m0 0h3l-1 4 2 1-12 5-5 4-1 3 8-3 10-7 3-1 4 2-5 3-4 4-9 2-5 4-7-1v-7l6-7z" fill="#FCE9E3"/>
<path transform="translate(689,298)" d="m0 0 1 2h2v18l-3 35-1 7-3 1v-18l3-41z" fill="#FDECE7"/>
<path transform="translate(901,829)" d="m0 0h77v3h-76z" fill="#FDEFEA"/>
<path transform="translate(183,1190)" d="m0 0 19 9 18 10 6 3 15 9 3 1 1-3h2l2 9 3 6-1 2-6-9-7-5-17-8-13-8-19-9-3-2v-2h-3z" fill="#01C0C2"/>
<path transform="translate(879,870)" d="m0 0 15 1 12 2 10 1v2l-14 1-5 1h-21v-1l6-1-16-3v-1z" fill="#03B4BA"/>
<path transform="translate(545,1406)" d="m0 0 4 1v3l-8 4-23 11-16 6-2-1 8-5 12-6 12-7z" fill="#02C0C2"/>
<path transform="translate(1873,1738)" d="m0 0h56l7 1v2h-76l4-2z" fill="#0DC6CB"/>
<path transform="translate(123,1249)" d="m0 0h1l2 11 2-1v9l-2 25-2 2-1-3-1 2h-2l1-21z" fill="#FEFCF5"/>
<path transform="translate(1128,1538)" d="m0 0 5 2 10 10 7 10 2 4-1 4-4-3v-2h-2l-1-3-3-3-1 3-2-8-2-1v-2h-5-3-2z" fill="#02B5BA"/>
<path transform="translate(1394,1212)" d="m0 0h1v13l-6 45-3 25-5 42-2 4v-22l2-4z" fill="#FEDFC6"/>
<path transform="translate(1550,1018)" d="m0 0 2 3 8 24 10 32 8 28 3 10v5l-1-3h-2l-4-13-3-15-4-12-5-16-7-23-5-16z" fill="#FFD849"/>
<path transform="translate(493,398)" d="m0 0 6 4 7 7 8 7 8 8-1 3-9 2 1-2v-6l-7-8-7-4-6-1-4 2 2-9z" fill="#FEFEFD"/>
<path transform="translate(934,1738)" d="m0 0h73v3h-58v-2h-15z" fill="#11CCD1"/>
<path transform="translate(499,1298)" d="m0 0h1v7l3-3-1 5-5 14-4 13-1-4h-2l-3 10-3 7-1-4 6-17 8-23z" fill="#01C0C2"/>
<path transform="translate(253,1095)" d="m0 0h2l8 11v3l-3-1-4-5-3 1-8 13-5 8h-2l-1 5-4 7-4 5-4-5 1-3h4 2l2-6 7-10 7-14 3-4z" fill="#04BDC0"/>
<path transform="translate(222,746)" d="m0 0h2l1 22 1 6 1 23 1 4 9 3-10 5h-2l-1-3-2-40z" fill="#FEFEFD"/>
<path transform="translate(219,680)" d="m0 0h2l1 12 2 7v32l-1 13h-2l-2-51z" fill="#FEFEFD"/>
<path transform="translate(533,1738)" d="m0 0h34l14 1 35 1v1h-99v-1l16-1z" fill="#0ACED3"/>
<path transform="translate(737,971)" d="m0 0 18 2v1l-18 1-1 1-1 93h-1l-1-28v-62l2-7z" fill="#FFF6D6"/>
<path transform="translate(95,1738)" d="m0 0h58v1l30 1v1h-88z" fill="#D1F8F9"/>
<path transform="translate(283,1338)" d="m0 0 1 2h3l6 21 1 6 2 11 2 4v3h-2l-1-5h-2l-6-21-4-11z" fill="#01BDC0"/>
<path transform="translate(1873,1133)" d="m0 0 9 1 17 5 6 4-1 3-11-2-14-3-7-5z" fill="#FEF5DC"/>
<path transform="translate(1600,1401)" d="m0 0h2l3 19 1 11 3 8v6h-3l-2-2-6-32v-6z" fill="#FFD849"/>
<path transform="translate(1034,1656)" d="m0 0 2 1v4l2 1v3l7-6 3-1 5 1-1 4-15 10-4 1-1-2-1-11z" fill="#0EB9BE"/>
<path transform="translate(1564,1222)" d="m0 0 4 1 1 5v10h-9l-4-2-1-5 3-5h2v-2z" fill="#FEB40A"/>
<path transform="translate(902,787)" d="m0 0h48l7 1-1 3h-53z" fill="#03B4BA"/>
<path transform="translate(190,1363)" d="m0 0 6 2 21 12 19 10 11 7-3 1-16-8-27-15-8-4-3-1z" fill="#01C0C2"/>
<path transform="translate(567,1205)" d="m0 0h1v6l-21 8-16 7-4 5 1-5 2-9 1 4 30-12 3-2h3z" fill="#01BFC1"/>
<path transform="translate(129,1192)" d="m0 0 5 1 9 7 6 5-2 1-14-5v6l-2 2-2-1-2 3 1-15z" fill="#FEFDFC"/>
<path transform="translate(1629,1347)" d="m0 0 1 2 9-1h23l8 1-2 3-39 1-1-4z" fill="#FAD4CF"/>
<path transform="translate(1698,1351)" d="m0 0 4 3-7 8-7 7-14 10-2-1 13-13 7-8z" fill="#FEF3D9"/>
<path transform="translate(1033,730)" d="m0 0h44l-1 3-33 1h-9l-2-1z" fill="#E8DFDC"/>
<path transform="translate(177,1121)" d="m0 0 13 5 9 4 19 8 4 1 1-2 1 8-19-8-16-8-3-2-8-2z" fill="#01BFC1"/>
<path transform="translate(1570,1225)" d="m0 0 2 1 3 20 2 9 1 11 2 7 1 10v13l-2-4-2-19-3-15-3-20-1-5z" fill="#FEF4D4"/>
<path transform="translate(691,267)" d="m0 0 1 3 3 1v10l-2 26h-1v-7h-2l-1-2 1-21z" fill="#FDFBFA"/>
<path transform="translate(733,1063)" d="m0 0h1v6l-1 1h-25l-15-1 4-4 34 2v-3z" fill="#FBCBC6"/>
<path transform="translate(375,1175)" d="m0 0 3 1 2 4 5 5 1 4h2v2h2v3l2 1h-3l-1-2-1 3 2 5-4-2-6-8-5-8 4-1 1 4 2 1-5-9z" fill="#02B4BA"/>
<path transform="translate(1581,342)" d="m0 0 2 1 2 8v4h-2l-2-4-5-1-11 9-7 7v5l2 1v2l-7-2v-3l7-8 12-12z" fill="#FEFEFD"/>
<path transform="translate(1715,1203)" d="m0 0h2l4 23 2 26v19l-1 5h-1l-1-31-2-20-3-18z" fill="#FEFEFD"/>
<path transform="translate(566,1263)" d="m0 0 2 1-1 4-18 7-9 4h-5l2-3 19-9z" fill="#01C0C2"/>
<path transform="translate(1104,772)" d="m0 0h42l-1 3h-43l-1-2z" fill="#FCEBE5"/>
<path transform="translate(980,787)" d="m0 0h33l1 3h-44v-2z" fill="#FCE6E0"/>
<path transform="translate(270,1296)" d="m0 0 4 4 6 17v11l-4-5-2-6-2-9-2-2z" fill="#02B4BA"/>
<path transform="translate(341,1537)" d="m0 0 1 2h2l3 10h2l5 18v3h-4l-9-30z" fill="#34464A"/>
<path transform="translate(1690,1501)" d="m0 0 2 4 4 29 4 23 1 4v7l-2-4-3-14-4-24-2-15z" fill="#FCA6A1"/>
<path transform="translate(1744,1308)" d="m0 0h2l-2 5-1 2h-2l-2 4-9 8h-4v-2l5-5 2-4 7-7z" fill="#FEF5D7"/>
<path transform="translate(902,802)" d="m0 0h106v4l-2-2-104-1z" fill="#09B4BA"/>
<path transform="translate(1027,1284)" d="m0 0 2 4 5 45v8h-1l-3-23-4-20-1-10h2z" fill="#FDF9F7"/>
<path transform="translate(737,974)" d="m0 0h52v1l-32 1-5 1-14 1-2 9h-1v-11z" fill="#FFD94F"/>
<path transform="translate(1388,1281)" d="m0 0 1 4-3 20-5 45-3 4-1-3 2-6 6-50 2-13z" fill="#FFD849"/>
<path transform="translate(1046,772)" d="m0 0h47l1 3h-16l-32-1z" fill="#F3E8E2"/>
<path transform="translate(309,1252)" d="m0 0 4 2 7 8v2l3 1 3 4-1 4-5-3-1-3h-2l-8-11z" fill="#02B4BA"/>
<path transform="translate(1900,1140)" d="m0 0 11 2 5 2-2 4-6 7-3-1-2 1 2-4 3-4-4-1 1-3-5-2z" fill="#FEFDFC"/>
<path transform="translate(990,829)" d="m0 0h34l-1 3h-32z" fill="#0AB6BC"/>
<path transform="translate(1163,1493)" d="m0 0h2l1 6-1 36-3 1v-41z" fill="#FFBEBA"/>
<path transform="translate(1106,1685)" d="m0 0 3 4 4 16v4l-4-1-7-10 4-2z" fill="#FDEBE5"/>
<path transform="translate(1265,884)" d="m0 0 7 4 1 9-2 14-6 11-2 1 1-5 5-10v-14l-3-7z" fill="#FEFEFD"/>
<path transform="translate(530,1444)" d="m0 0 3 1-12 14-5 6h-2l1-5 6-8h2l2-4z" fill="#01BFC1"/>
<path transform="translate(292,1152)" d="m0 0 4 1 4 5v2h-6l-7 10-4 6-2-1 1-3h2l1-5 4-6z" fill="#05C1C3"/>
<path transform="translate(1574,1085)" d="m0 0 2 1 4 10 1 6v9h-2l-6-20z" fill="#FEF0D4"/>
<path transform="translate(1547 1e3)" d="m0 0 2 4 10 26 1 12-2-3-10-30-2-5z" fill="#FCE5D1"/>
<path transform="translate(533,1738)" d="m0 0h34v1l-13 1v1h-37v-1l16-1z" fill="#9FD2D0"/>
<path transform="translate(1582,1302)" d="m0 0 2 2 3 15 2 9v15l-2-3-3-21-2-11z" fill="#FDB0A7"/>
<path transform="translate(699,416)" d="m0 0 4 1-1 4-12 6h-4l1-5z" fill="#FDEBE6"/>
<path transform="translate(665,1061)" d="m0 0h23l6 2 1 2-27-1-3-1z" fill="#FAD0CB"/>
<path transform="translate(416,1551)" d="m0 0 2 2-1 7-3 9-5 1 2-9 3-9z" fill="#1EB1B6"/>
<path transform="translate(1684,1070)" d="m0 0h36v1h-34l1 13 2 8-4-1-1-5z" fill="#FDA6A1"/>
<path transform="translate(533,1507)" d="m0 0h1l1 16-1 30h-1l-1-11v-30z" fill="#FDACA5"/>
<path transform="translate(1596,1184)" d="m0 0h3l5 19 2 11v4h-2l-8-32z" fill="#FCD5C7"/>
<path transform="translate(1890,728)" d="m0 0 10 5 2 4-10 6v-13h-2z" fill="#FEFEFD"/>
<path transform="translate(731,684)" d="m0 0h9l8 2 6 5 1 2v13l-2-1-1-9-4-6-5-3-13-1z" fill="#FEFEFD"/>
<path transform="translate(1246,1738)" d="m0 0h22l15 1 2 2h-42v-2z" fill="#A5D4D3"/>
<path transform="translate(523,1069)" d="m0 0 64 1v1l-62 1v7l-2-4z" fill="#FCB0AA"/>
<path transform="translate(1521,1252)" d="m0 0h1l2 22v14l-2 2-1-5-1-32z" fill="#FEE7CC"/>
<path transform="translate(1589,1328)" d="m0 0h1l7 42v10h-1l-6-36-1-1z" fill="#FFD849"/>
<path transform="translate(1873,1738)" d="m0 0h29v1l-16 1-2 1h-24l4-2z" fill="#CFEBE9"/>
<path transform="translate(406,945)" d="m0 0 1 2-4 9 1 7-1 4-7-1 1-5z" fill="#07B7BC"/>
<path transform="translate(1086,747)" d="m0 0h23l3 2-1 1h-31l-1-2z" fill="#2F5154"/>
<path transform="translate(95,1738)" d="m0 0h26l1 2-5 1h-22z" fill="#21CDD1"/>
<path transform="translate(127,1241)" d="m0 0 2 2v15l-3 3-2-7v-8z" fill="#FEF6D9"/>
<path transform="translate(902,772)" d="m0 0h26l-1 3h-24z" fill="#03B4BA"/>
<path transform="translate(804,616)" d="m0 0h40v1l-18 1-8-1v3l-9 1-2-4z" fill="#03B4BA"/>
<path transform="translate(1730,1098)" d="m0 0 12 2 17 3-2 4-10-2-15-5z" fill="#FDEBE4"/>
<path transform="translate(242,1118)" d="m0 0v3l-2 4h-2l-1 5-4 7-4 5-4-5 1-3h4 2l2-6z" fill="#01C0C2"/>
<path transform="translate(875,672)" d="m0 0h17l2 1-1 3h-18z" fill="#51C5C7"/>
<path transform="translate(1582,1118)" d="m0 0 4 5 2 12v10l-2-4-4-13-1-9z" fill="#FEEFD3"/>
<path transform="translate(125,1228)" d="m0 0 2 3v2h3v-5h1l-1 18-3-4-3 4z" fill="#FEFEFD"/>
<path transform="translate(1679,1504)" d="m0 0h1l4 20 2 14v7h-1l-5-26-1-7z" fill="#FDAAA5"/>
<path transform="translate(425,1738)" d="m0 0 32 1v2h-34z" fill="#15B8BD"/>
<path transform="translate(876,759)" d="m0 0h16l1 3-1 1h-17z" fill="#03B4BA"/>
<path transform="translate(1443 1e3)" d="m0 0h1v11l-2 23-2 1v-11l1-16z" fill="#FFF6D6"/>
<path transform="translate(901,829)" d="m0 0 37 1v1l-11 1h-25z" fill="#BBCCCA"/>
<path transform="translate(1029,1717)" d="m0 0h5l1 4h2l-1 3-5 2h-4l-1-3v-3z" fill="#06B5BB"/>
<path transform="translate(815,1013)" d="m0 0h2v23l5-2 2-1-2 5-3 2h-4z" fill="#3D3336"/>
<path transform="translate(1056,673)" d="m0 0h40l1 2-3 1-40-1z" fill="#FDEBE5"/>
<path transform="translate(1078,1559)" d="m0 0h2l1 5 4 1 16 1v1l-5 1h-18z" fill="#FDD1CC"/>
<path transform="translate(880,816)" d="m0 0h12l1 4h-18v-3z" fill="#59C6C8"/>
<path transform="translate(1576,1264)" d="m0 0 2 2 2 7 1 10v13l-2-4-2-19z" fill="#FEDFC6"/>
<path transform="translate(876,699)" d="m0 0h9l7 1v3h-17z" fill="#03B4BA"/>
<path transform="translate(1100,1719)" d="m0 0 4 1 5-1 4 5h-2v2l-5 1-4-3-3-4z" fill="#02B4BA"/>
<path transform="translate(1171,1738)" d="m0 0h17l15 1-1 2h-20v-2h-11z" fill="#4BD9DC"/>
<path transform="translate(874,829)" d="m0 0h18l1 3h-19z" fill="#F7E4DF"/>
<path transform="translate(918,767)" d="m0 0h16l-1 3h-21l3-2z" fill="#292124"/>
<path transform="translate(874,730)" d="m0 0h19v3h-18z" fill="#FDF0EC"/>
<path transform="translate(1068,1592)" d="m0 0h2l-1 5-4 8h-3l1-3-3 3 2-6 4-6zm0 1v3z" fill="#FBCBC6"/>
<path transform="translate(1699,1548)" d="m0 0h2l2 5v3h2l2 4v3l-8-4z" fill="#FBCCC8"/>
<path transform="translate(485,421)" d="m0 0 2 2 1 7 5 2-1 2-9 1 1-9z" fill="#FEFEFD"/>
<path transform="translate(1567,1063)" d="m0 0h1l3 9 3 11v4h-2l-6-19z" fill="#FCE6D1"/>
<path transform="translate(1382,1307)" d="m0 0h1v12l-2 18-2 4v-22l2-4z" fill="#FEE2C9"/>
<path transform="translate(1608,655)" d="m0 0h7v2l-23 4h-5l3-2z" fill="#FBD0CB"/>
<path transform="translate(349,1552)" d="m0 0 2 4 3 11v3h-4l-2-10z" fill="#12B4B9"/>
<path transform="translate(1685,1365)" d="m0 0h2l-1 5-12 9-2-1z" fill="#FBC7C1"/>
<path transform="translate(1157,1578)" d="m0 0h2v9l-7 5-2-1 3-6h2v-2h2z" fill="#03B4BA"/>
<path transform="translate(176,1266)" d="m0 0 7 2 4 3 8 4-1 3-6-3-6-4-5-2z" fill="#01C0C2"/>
<path transform="translate(876,688)" d="m0 0h16v3h-17z" fill="#1CB9BE"/>
<path transform="translate(997,825)" d="m0 0 5 1 28 1v1h-39l4-2z" fill="#292124"/>
<path transform="translate(997,787)" d="m0 0h16l1 3h-16z" fill="#C2D5D2"/>
<path transform="translate(875,772)" d="m0 0h17v3h-18z" fill="#E2E2DE"/>
<path transform="translate(610,684)" d="m0 0h20v1l-16 1-5 2-3 1-2 7-2-2 3-6z" fill="#FEFEFD"/>
<path transform="translate(1902,1738)" d="m0 0 7 2v1h-25l2-2z" fill="#02B7BD"/>
<path transform="translate(1554,1023)" d="m0 0 2 2 3 8 1 12-2-3-4-13z" fill="#FCE2D0"/>
<path transform="translate(1536,1011)" d="m0 0h2l1 2 1 15-2 1-2-10z" fill="#FEF2D3"/>
<path transform="translate(1746,1475)" d="m0 0h3v8l-2 4-1-7-6-2 2-2z" fill="#FEFEFD"/>
<path transform="translate(1382,1326)" d="m0 0h1l-1 14-1 10-3 4-1-3 2-6 2-18z" fill="#FECF4F"/>
<path transform="translate(1048,1711)" d="m0 0 4 1 1 5-6 2-2-2 1-4z" fill="#07B6BC"/>
<path transform="translate(444,1446)" d="m0 0 4 4 2-2-1 6h-2l-2 10-2 2 2-12-1-2z" fill="#01C0C2"/>
<path transform="translate(487,1348)" d="m0 0 1 3-3 8-1 8-3 5-3 3 3-9 4-15z" fill="#01C0C2"/>
<path transform="translate(1588,1142)" d="m0 0h1l4 15v9l-2-4-2-6z" fill="#FCE1CF"/>
<path transform="translate(440,881)" d="m0 0 5 1-2 6-3 2-3-2z" fill="#02B4BA"/>
<path transform="translate(784,868)" d="m0 0 2 1v2l3-1 1 8h-6z" fill="#03B4BA"/>
<path transform="translate(1587,1322)" d="m0 0h1l1 6v15l-2-3-1-5v-8z" fill="#FDA7A2"/>
<path transform="translate(1620,1292)" d="m0 0 2 4 2 13v5l-2-1-3-18z" fill="#FCD8CA"/>
<path transform="translate(506,1276)" d="m0 0 1 3-4 9-2 10h-1v-14l4-3z" fill="#01C0C2"/>
<path transform="translate(737,971)" d="m0 0 18 2v1l-18 1h-3l1-3z" fill="#FEF0D2"/>
<path transform="translate(1729,943)" d="m0 0h10v3l-7 5-1-5z" fill="#FEFEFD"/>
<path transform="translate(154,1350)" d="m0 0 3 1-14 8-2-1-1-2z" fill="#FEFEFD"/>
<path transform="translate(1684,1077)" d="m0 0h2l2 9 1 6-4-1-1-5z" fill="#FCAEA9"/>
<path transform="translate(1410,1042)" d="m0 0 2 3 3 11v3l3-1-1 5-3-1-4-16z" fill="#FA6253"/>
<path transform="translate(192,1019)" d="m0 0 5 5 4 5v3l-4-2-5-5v-3z" fill="#10C5C7"/>
<path transform="translate(875,745)" d="m0 0h17v2l-16 1z" fill="#FDEBE5"/>
<path transform="translate(1107,1677)" d="m0 0h5l4 5-4-2-3-1-2 1-1 5-8-3v-1l7-2z" fill="#FDEBE5"/>
<path transform="translate(1301,1353)" d="m0 0h1v10l-6 1 1-4z" fill="#FDBBB6"/>
<path transform="translate(562,1324)" d="m0 0h3v5l-2 2-6-1 2-4z" fill="#01C0C2"/>
<path transform="translate(121,1286)" d="m0 0 3 1 2-1v7l-2 2-1-3-1 2h-2v-7z" fill="#FEFEFD"/>
<path transform="translate(1570,1225)" d="m0 0 2 1 2 20h-2l-2-13z" fill="#FEEDD0"/>
<path transform="translate(1616,1270)" d="m0 0 2 3 2 11v7l-2-1-2-12z" fill="#FCD9CA"/>
<path transform="translate(545,1738)" d="m0 0h22v1l-13 1v1h-9z" fill="#E6F2EF"/>
<path transform="translate(1058,1607)" d="m0 0h2l-1 9-4-1-1-1v-6l2 2z" fill="#FDAEAA"/>
<path transform="translate(583,1458)" d="m0 0 4 2 2 7h-2l-3-3-5-1z" fill="#FEFEFD"/>
<path transform="translate(1095,1150)" d="m0 0 2 1-4 3h-3l-1 3-9 2-1-2z" fill="#FAD1CC"/>
<path transform="translate(1724,956)" d="m0 0 2 1-10 11-4 4v-3l2-3h2l2-4z" fill="#FEFEFD"/>
<path transform="translate(1677,1527)" d="m0 0 2 3 1 9h-4l-1-5z" fill="#FACFCA"/>
<path transform="translate(529,1447)" d="m0 0v3l-8 9-4 4 1-4 7-8z" fill="#03B4BA"/>
<path transform="translate(551,1331)" d="m0 0h4l-2 4-9 3 1-3z" fill="#01C0C2"/>
<path transform="translate(520,1057)" d="m0 0 2 4 1 8-2 1-3-6 1-6z" fill="#30CDCF"/>
<path transform="translate(471,1590)" d="m0 0h1v5l-3 2-9-2v-2h11z" fill="#FCAEA9"/>
<path transform="translate(1124,1545)" d="m0 0 1 3-6 9-4 5-2-1 4-7h2v-2l2-1z" fill="#FEC0BC"/>
<path transform="translate(531,1446)" d="m0 0 3 1v10h-2l-1-6-3-1z" fill="#FBD1CC"/>
<path transform="translate(256,1098)" d="m0 0 5 5 2 3v3l-3-1-4-5-2-2z" fill="#0DC5C8"/>
<path transform="translate(344,1548)" d="m0 0 3 3 2-2v11h-2l-3-9z" fill="#26797D"/>
<path transform="translate(1671,1510)" d="m0 0 5 1v6l-4-1v-2l-4-2z" fill="#FACFCA"/>
<path transform="translate(521,1216)" d="m0 0 4 1 2-1-1 5h-2v8l-2 3v-11z" fill="#01C0C2"/>
<path transform="translate(1582,1118)" d="m0 0 4 5-1 7-3-2-1-9z" fill="#FDE3CD"/>
<path transform="translate(1514,946)" d="m0 0 4 2 8 10v2l-4-2-8-11z" fill="#FDE8D1"/>
<path transform="translate(1837,1218)" d="m0 0 2 1-8 9-3-3z" fill="#FCE5DD"/>
<path transform="translate(560,1129)" d="m0 0h1v8l-4 6-1-3z" fill="#01C0C2"/>
<path transform="translate(552,1128)" d="m0 0h4l-1 8-2 3-2-9z" fill="#07C2C4"/>
<path transform="translate(719,1018)" d="m0 0 5 1v4l-5 1-2-4z" fill="#FDEBE5"/>
<path transform="translate(881,824)" d="m0 0h4l3 4h-12z" fill="#292124"/>
<path transform="translate(879,768)" d="m0 0 10 1-1 2h-11l-1-2z" fill="#292124"/>
<path transform="translate(1903,1738)" d="m0 0h12l2 2-1 1h-7l-6-2z" fill="#AEECEE"/>
<path transform="translate(1161,1671)" d="m0 0 3 1 3 7-1 4-3 3-2-1 3-4-1-5z" fill="#FDD5D0"/>
<path transform="translate(283,1338)" d="m0 0 1 2h3v9l-4-4z" fill="#02B5BB"/>
<path transform="translate(1014,1734)" d="m0 0 1 2 3 1 1 3-10 1 1-2h5l-3-2z" fill="#02B4BA"/>
<path transform="translate(1730,1098)" d="m0 0 12 2 4 2v1l-9-1-7-3z" fill="#FAD4CE"/>
<path transform="translate(1446,951)" d="m0 0 3 1-6 7-2 2v-4l1-3z" fill="#292124"/>
<path transform="translate(1097,326)" d="m0 0h3v6l-6-1-4-1z" fill="#FEFEFD"/>
<path transform="translate(1526,959)" d="m0 0 4 5 1 1v6l-3-4-3-5z" fill="#FDEDD3"/>
<path transform="translate(1082,673)" d="m0 0h14l1 2-3 1-14-1z" fill="#FCE9E3"/>
<path transform="translate(833,348)" d="m0 0 2 2v3l-4 1-2-1v-4z" fill="#FDEDE8"/>
<path transform="translate(1703,1565)" d="m0 0 3 1v2l3 1 1 3-3-1v-2h-2z" fill="#FAD1CB"/>
<path transform="translate(501,1543)" d="m0 0h2l-1 3h-2z" fill="#FACFCA"/>
<path transform="translate(503,1541)" d="m0 0 2 1-2 1z" fill="#FACFCA"/>
<path transform="translate(1861,1132)" d="m0 0 2 1z" fill="#FECEBB"/>
<path transform="translate(1711,1573)" d="m0 0" fill="#FDEBE5"/>
<path transform="translate(1710,1572)" d="m0 0" fill="#FACFCA"/>
<path transform="translate(536,1547)" d="m0 0" fill="#FFF6D6"/>
<path transform="translate(1671,1379)" d="m0 0" fill="#FFBEBA"/>
<path transform="translate(157,1349)" d="m0 0" fill="#FEFEFD"/>
<path transform="translate(1839,1217)" d="m0 0" fill="#FFBEBA"/>
<path transform="translate(1868,1190)" d="m0 0" fill="#FDEBE5"/>
<path transform="translate(1869,1189)" d="m0 0" fill="#FDEBE5"/>
<path transform="translate(1870,1134)" d="m0 0" fill="#FFF6D6"/>
</svg>
